<svg width="32" height="32" viewBox="0 0 32 32" fill="none" xmlns="http://www.w3.org/2000/svg">
<path opacity="0.5" d="M16 29.3333C9.71466 29.3333 6.572 29.3333 4.61866 27.38C2.66666 25.4293 2.66666 22.2853 2.66666 16C2.66666 9.71466 2.66666 6.57199 4.61866 4.61866C6.57333 2.66666 9.71466 2.66666 16 2.66666C22.2853 2.66666 25.428 2.66666 27.38 4.61866C29.3333 6.57332 29.3333 9.71466 29.3333 16C29.3333 22.2853 29.3333 25.428 27.38 27.38C25.4293 29.3333 22.2853 29.3333 16 29.3333Z" fill="#F30AEA"/>
<path d="M25 10.6667C25 10.9319 24.8946 11.1862 24.7071 11.3738C24.5196 11.5613 24.2652 11.6667 24 11.6667H8C7.73478 11.6667 7.48043 11.5613 7.29289 11.3738C7.10536 11.1862 7 10.9319 7 10.6667C7 10.4014 7.10536 10.1471 7.29289 9.95955C7.48043 9.77201 7.73478 9.66666 8 9.66666H24C24.2652 9.66666 24.5196 9.77201 24.7071 9.95955C24.8946 10.1471 25 10.4014 25 10.6667ZM25 16C25 16.2652 24.8946 16.5196 24.7071 16.7071C24.5196 16.8946 24.2652 17 24 17H8C7.73478 17 7.48043 16.8946 7.29289 16.7071C7.10536 16.5196 7 16.2652 7 16C7 15.7348 7.10536 15.4804 7.29289 15.2929C7.48043 15.1053 7.73478 15 8 15H24C24.2652 15 24.5196 15.1053 24.7071 15.2929C24.8946 15.4804 25 15.7348 25 16ZM25 21.3333C25 21.5985 24.8946 21.8529 24.7071 22.0404C24.5196 22.228 24.2652 22.3333 24 22.3333H8C7.73478 22.3333 7.48043 22.228 7.29289 22.0404C7.10536 21.8529 7 21.5985 7 21.3333C7 21.0681 7.10536 20.8138 7.29289 20.6262C7.48043 20.4387 7.73478 20.3333 8 20.3333H24C24.2652 20.3333 24.5196 20.4387 24.7071 20.6262C24.8946 20.8138 25 21.0681 25 21.3333Z" fill="white"/>
</svg>
